Coordinates
version=1
nRows=9
nColumns=42
inDegrees=yes

Units are S.I. units (second, meters, Newtons, ...)
If the header above contains a line with 'inDegrees', this indicates whether rotational values are in degrees (yes) or radians (no).

endheader
time	pelvis_tilt	pelvis_list	pelvis_rotation	pelvis_tx	pelvis_ty	pelvis_tz	hip_flexion_r	hip_adduction_r	hip_rotation_r	knee_angle_r	knee_adduction_r	knee_angle_r_beta	ankle_angle_r	subtalar_angle_r	mtp_angle_r	hip_flexion_l	hip_adduction_l	hip_rotation_l	knee_angle_l	knee_adduction_l	knee_angle_l_beta	ankle_angle_l	subtalar_angle_l	mtp_angle_l	lumbar_extension	lumbar_bending	lumbar_rotation	arm_flex_r	arm_add_r	arm_rot_r	elbow_flex_r	pro_sup_r	wrist_flex_r	wrist_dev_r	arm_flex_l	arm_add_l	arm_rot_l	elbow_flex_l	pro_sup_l	wrist_flex_l	wrist_dev_l
      8.50000000	      6.72434090	     -0.78682054	     -3.86678339	      0.97712756	      0.93810759	     -0.14548466	     11.91338658	     -9.44191302	    -25.80895457	     28.03100775	      4.58782326	      0.48923338	      6.89346103	     16.41909530	     -7.50024985	     -3.37022287	     -0.92356937	    -19.85107373	     26.84960691	      1.86180351	      0.46861404	     22.24617476	      1.40887876	     -7.50024985	    -18.17944280	      0.04301745	     -3.64752508	      6.29825919	    -10.47150463	      5.13478961	     41.22376406	     90.00000001	      0.00000000	      0.00000000	    -12.15647470	    -11.35632498	     -0.53310174	     50.21931082	     90.00000001	      0.00000000	      0.00000000
      8.51000000	      6.69293114	     -0.65826760	     -3.63477339	      0.98050062	      0.93752095	     -0.14491837	     11.82424008	     -9.39572960	    -25.67603185	     28.12270335	      4.40839793	      0.49083377	      6.95808811	     16.33390332	     -7.50024938	     -3.52401962	     -0.86103543	    -19.84033657	     26.89267978	      1.83259873	      0.46936581	     22.26881061	      1.40805646	     -7.50024938	    -18.02858496	      0.08054512	     -3.73437161	      6.09582862	    -10.55890007	      5.10568482	     41.11641172	     90.00000001	      0.00000000	      0.00000000	    -12.06062868	    -11.29191072	     -0.51504277	     50.24462009	     90.00000001	      0.00000000	      0.00000000
      8.52000000	      6.79691582	     -0.52826929	     -3.36421814	      0.98366172	      0.93718074	     -0.14430894	     11.72986006	     -9.28245412	    -25.71874942	     28.46380228	      3.88965374	      0.49678707	      7.76276361	     15.56292209	     -7.50024748	     -3.83275831	     -0.67169272	    -19.55015153	     26.81403016	      1.64342703	      0.46799311	     22.54268781	      1.46809220	     -7.50024748	    -18.06174404	      0.11444712	     -3.79763316	      6.04061882	    -10.58383531	      4.97289040	     40.87296444	     90.00000001	      0.00000000	      0.00000000	    -11.76812481	    -11.28187787	     -0.45727059	     50.04740069	     90.00000001	      0.00000000	      0.00000000
      8.53000000	      6.79489538	     -0.41914537	     -3.11469761	      0.98696478	      0.93672584	     -0.14364661	     11.65731985	     -9.24011674	    -25.52990459	     28.68348002	      3.70837981	      0.50062117	      8.01418994	     15.30154910	     -7.50024664	     -4.02791393	     -0.59712839	    -19.37786661	     26.80814971	      1.56848261	      0.46789048	     22.61675733	      1.51653797	     -7.50024664	    -17.96002067	      0.16136593	     -3.85257941	      5.89843870	    -10.65385614	      4.89379195	     40.70769259	     90.00000001	      0.00000000	      0.00000000	    -11.57971620	    -11.24200055	     -0.43754916	     50.04292758	     90.00000001	      0.00000000	      0.00000000
      8.54000000	      6.80547208	     -0.31888639	     -2.87096409	      0.99025677	      0.93632831	     -0.14300120	     11.60278665	     -9.19395625	    -25.35610247	     28.95047558	      3.46922390	      0.50528112	      8.36436377	     14.97609451	     -7.50024588	     -4.25228010	     -0.51501496	    -19.19095700	     26.76801438	      1.48074377	      0.46718999	     22.72348339	      1.56425974	     -7.50024588	    -17.88379186	      0.23668277	     -3.91131699	      5.79128927	    -10.71460944	      4.80938196	     40.53990304	     90.00000001	      0.00000000	      0.00000000	    -11.39467605	    -11.20209025	     -0.42043467	     50.00282378	     90.00000001	      0.00000000	      0.00000000
      8.55000000	      6.82582819	     -0.18383985	     -2.66128668	      0.99353306	      0.93594608	     -0.14226793	     11.65165437	     -9.19650000	    -25.18506245	     29.49139889	      3.17033162	      0.51472201	      9.27724061	     14.07552588	     -7.50024395	     -4.56239831	     -0.34602537	    -18.81351522	     26.55059348	      1.44114514	      0.46339527	     22.99384441	      1.67509065	     -7.50024395	    -17.81857064	      0.26259366	     -3.96137824	      5.78323878	    -10.71298173	      4.58923538	     40.25533926	     90.00000001	      0.00000000	      0.00000000	    -11.16444163	    -11.14588634	     -0.39310829	     49.80623972	     90.00000001	      0.00000000	      0.00000000
      8.56000000	      6.78312793	     -0.08370364	     -2.45206707	      0.99685717	      0.93553214	     -0.14148836	     11.63979413	     -9.19522683	    -24.91828512	     29.76977201	      3.06483093	      0.51958054	      9.52315931	     13.75652042	     -7.50024298	     -4.74954594	     -0.28856067	    -18.67061322	     26.48346031	      1.38150650	      0.46222358	     23.05902774	      1.70840371	     -7.50024298	    -17.68586893	      0.31812533	     -4.01911448	      5.69323512	    -10.76689434	      4.46643170	     40.09327018	     90.00000001	      0.00000000	      0.00000000	    -11.01653754	    -11.08459336	     -0.39031093	     49.80591274	     90.00000001	      0.00000000	      0.00000000
      8.57000000	      6.58253751	      0.22996564	     -2.36963032	      1.00000919	      0.93485024	     -0.14062200	     11.98316188	     -9.49494631	    -24.02785231	     30.39884753	      3.30190798	      0.53055998	     10.08170125	     11.95695876	     -7.50023462	     -4.82776737	      0.09871717	    -18.38065584	     26.21141456	      1.33382071	      0.45747549	     23.15862423	      1.64017918	     -7.50023462	    -17.37960640	      0.12471651	     -4.02262323	      5.73850609	    -10.59295931	      3.73992501	     39.63896707	     90.00000001	      0.00000000	      0.00000000	    -10.86299570	    -11.01485517	     -0.46286836	     49.71047869	     90.00000001	      0.00000000	      0.00000000
      8.58000000	      6.58026202	      0.23955073	     -2.20461416	      1.00333076	      0.93457442	     -0.13967032	     11.95197579	     -9.36603021	    -23.88722587	     30.72509829	      3.06948869	      0.53625413	     10.47315814	     11.56630372	     -7.50023213	     -5.11845462	      0.02426284	    -18.25622782	     26.08853627	      1.35953098	      0.45533086	     23.27181132	      1.66255003	     -7.50023213	    -17.30833428	      0.27155736	     -4.02495113	      5.71663568	    -10.66798507	      3.65957252	     39.49188051	     90.00000001	      0.00000000	      0.00000000	    -10.71516819	    -10.93137943	     -0.46865379	     49.66310904	     90.00000001	      0.00000000	      0.00000000
